<svg width="111.77345mm" height="155.11205mm" viewBox="0 0 111.77345 155.11205" xmlns="http://www.w3.org/2000/svg">
    <path d="m 28682.327,17164.064 c -23.395,-2.236 -43.166,-24.874 -36.023,-62.604 7.142,-37.73 31.882,-51.611 42.027,-47.511 10.144,4.099 25.391,9.396 25.391,9.396 0,0 40.755,-10.142 58.974,-10.328 18.218,-0.186 33.953,4.285 33.953,4.285 0,0 25.775,-22.544 41.82,-15.278 16.045,7.267 27.121,36.426 30.537,49.561 3.416,13.136 -12.422,21.148 -17.287,19.471 -4.865,-1.677 -9.316,13.508 -1.76,38.475 7.557,24.967 22.981,67.727 -4.14,81.515 -27.121,13.788 -51.24,15.558 -51.24,15.558 -2.862,11.92 -6.142,29.613 -8.696,33.258 0,0 -8.339,-0.754 -6.103,14.435 2.236,15.19 -20.811,72.856 -26.194,130.242 -5.382,57.387 2.485,150.827 -68.423,163.031 -70.908,12.204 -144.197,24.501 -147.199,-54.872 -3.002,-79.372 27.121,-188.369 58.797,-226.938 31.675,-38.568 57.658,-63.721 57.658,-63.721 0,0 -3.934,-4.472 2.795,-14.999 6.728,-10.527 27.224,-31.395 27.224,-31.395 l 6.004,-33.072 z" fill="#fff" paint-order="markers stroke fill" transform="translate(-157.25939,-41.409159) matrix(0.26458333,0,0,0.26458333,-7376.3815,-4464.3947)"/>
    <path d="M28571.279 17373.112l83.622 28.322 39.826-100.272-57.072-33.442zM28662.013 17236.199c.83-2.027 37.396-40.216 37.396-40.216l45.16 22.081 72.431 45.961 26.955 13.882 38.778 6.054-29.295 10.806 4.968 32.327c0 0-28.382-15.888-28.151-30.296.231-14.408-4.79 3.937-15.161-3.903-10.372-7.841-19.211-13.033-19.211-13.033 0 0-102.578-22.382-133.87-43.663z" fill="#ede781" paint-order="markers stroke fill" transform="translate(-157.25939,-41.409159) matrix(0.26458333,0,0,0.26458333,-7376.3815,-4464.3947)"/>
    <path d="m 32567.416,19481.375 c -10.879,-1.124 -35.74,9.606 -39.539,17.064 -1.182,2.321 -4.581,2.267 -10.387,-0.162 -16.112,-6.739 -45.461,-5.367 -64.178,3.002 l -16.884,7.549 -9.762,-6.547 c -13.414,-8.995 -25.129,-10.029 -36.059,-3.183 -18.791,11.771 -31.112,41.03 -31.211,74.107 -0.116,37.897 13.542,55.445 41.358,53.149 14.741,-1.219 14.851,-1.153 13.652,7.974 -0.79,6.009 -7.033,14.79 -18.002,25.315 -18.769,18.013 -22.866,25.047 -19.754,33.9 2.279,6.479 -7.907,14.398 -19.775,15.379 -3.792,0.313 -5.948,2.641 -5.662,6.111 0.256,3.083 -6.151,13.205 -14.236,22.49 -27.738,31.865 -52.31,82.007 -64.782,132.196 -12.603,50.727 -15.152,97.325 -7.05,128.896 3.762,14.666 3.687,14.942 -3.622,13.514 -13.125,-2.566 -46.15,-34.363 -51.652,-49.731 -3.442,-9.618 -6.354,-13.355 -9.658,-12.396 -7.474,2.166 -3.673,26.799 6.795,44.012 10.977,18.054 40.722,41.592 54.756,43.328 5.718,0.709 13.836,3.089 18.039,5.291 6.145,3.219 43.375,9.822 52.455,9.305 5.188,0.33 5.112,17.613 31.838,15.412 15.143,-1.247 34.489,1.029 52.408,-0.217 23.558,-1.946 29.641,-5.421 28.767,-16.43 -0.159,-2.007 0.726,-4.332 2.331,-6.623 4.816,-0.291 10.154,-0.633 15.964,-1.031 l 0.08,1.002 c 1.073,12.997 7.421,19.745 16.25,17.277 6.692,-1.872 9.657,-8.34 9.237,-20.279 11.018,-1.02 20.147,-2.148 23.414,-3.279 10.486,-3.63 8.376,-18.038 -1.738,-20.663 -6.253,-1.622 -14.14,-1.917 -25.51,-1.923 -3.689,-18.101 -3.441,-23.673 1.584,-44.758 5.368,-22.529 7.261,-41.221 11.681,-115.326 0.78,-13.09 2.582,-30.597 4.004,-38.903 2.177,-12.709 4.242,3.797 13.039,104.158 10.854,123.815 11.686,128.151 24.385,127.102 11.963,-0.986 12.507,-11.411 4.209,-80.769 -4.326,-36.17 -11.21,-99.59 -15.297,-140.934 -4.085,-41.345 -7.991,-77.815 -8.687,-81.045 -1.913,-8.926 4.745,-9.832 9.519,-1.295 4.469,7.992 16.518,11.65 26.635,8.092 4.106,-1.444 8.337,0.27 12.975,5.26 9.175,9.87 5.803,15.417 -4.428,7.281 -9.974,-7.93 -10.031,-5.757 -0.213,8.127 7.894,11.165 18.132,17.513 22.746,14.107 2.949,-2.177 0.03,-28.797 -3.955,-36.088 -2.029,-3.709 0.516,-4.777 14.027,-5.894 14.415,-1.191 16.445,-2.159 15.991,-7.637 -0.607,-7.333 -16.437,-12.395 -34.869,-11.15 -6.476,0.437 -11.897,-0.69 -12.047,-2.502 -0.15,-1.813 -5.384,-4.954 -11.629,-6.977 -13.891,-4.502 -15.879,-12.694 -3.334,-13.73 11.749,-0.971 38.646,-17.561 45.65,-28.16 10.346,-15.651 11.822,-31.811 4.527,-49.645 -3.552,-8.691 -7.81,-24.46 -9.46,-35.041 l -2.997,-19.236 10.774,0.847 c 14.639,1.151 19.868,-4.743 18.391,-20.722 -2.593,-28.076 -31.383,-66.93 -51.102,-68.971 z m -6.363,21.557 v 0 c 8.527,-0.185 14.972,6.993 23.551,23.046 11.605,21.717 12.824,26.292 7.675,28.772 -3.21,1.545 -6.846,-1.339 -11.834,-9.402 -8.685,-14.033 -22.312,-23.61 -32.404,-22.78 -4.08,0.337 -7.348,1.494 -7.258,2.569 0.09,1.077 6.506,9.944 14.26,19.707 13.4,16.873 14.197,18.946 16.094,41.916 1.097,13.29 4.851,31.503 8.342,40.474 8.571,22.026 6.896,35.922 -5.411,44.895 -12.026,8.771 -15.167,9.049 -11.693,1.035 1.513,-3.485 2.522,-9.607 2.244,-13.607 -0.275,-3.998 1.346,-10.181 3.602,-13.739 5.989,-9.444 4.278,-17.073 -4.955,-22.086 -9.813,-5.332 -23.927,-1.847 -31.243,7.715 -6.994,9.141 -0.102,21.354 12.899,22.856 8.704,1.003 9.468,2.069 10.057,14.095 0.353,7.156 -0.763,14.17 -2.477,15.588 -1.716,1.418 -4.543,2.584 -6.285,2.494 -22.323,-0.594 -38.191,-3.056 -45.59,-7.076 -16.448,-8.935 -39.582,-31.413 -48.647,-47.269 -13.677,-23.927 -23.466,-18.817 -10.794,5.633 6.876,13.264 5.962,15.132 -4.063,8.302 -13.271,-9.047 -4.427,-21.788 -3.34,-36.908 2.349,-17.446 4.618,-36.911 5.037,-43.256 1.503,-22.656 -10.148,-16.081 -23.72,13.389 -10.263,22.288 -16.504,28.253 -24.969,23.867 -7.067,-3.662 -11.684,-31.819 -8.277,-50.478 5.511,-30.181 20.641,-42.745 41.177,-34.188 11.58,4.822 22.848,4.555 22.428,-0.535 -0.382,-4.63 74.845,-6.822 81.215,-2.367 3.241,2.269 7.37,1.047 15.873,-4.701 7.525,-5.087 13.39,-7.851 18.506,-7.963 z m -45.809,69.507 c -1.434,0.137 -2.921,0.731 -4.355,1.823 -6.769,5.154 -6.817,13.78 -1.256,18.492 1.586,1.323 5.52,3.507 9.814,1.512 4.873,-2.263 4.914,-6.655 4.494,-11.782 -0.557,-6.747 -4.393,-10.455 -8.697,-10.045 z m -41.851,3.161 c -0.778,0.01 -1.574,0.12 -2.381,0.338 -6.317,1.704 -9.13,10.623 -5.295,18.585 3.983,8.269 18.105,2.692 17.787,-7.599 -0.205,-6.612 -4.672,-11.397 -10.111,-11.324 z m 13.64,72.4 c -3.377,-0.06 -5.489,4.512 -4.465,8.705 1.423,5.836 9.393,12.508 16.477,17.016 22.987,14.631 35.31,-8.18 23.908,-7.93 -8.391,0.181 -16.947,0.959 -31.484,-15.297 -1.598,-1.74 -3.114,-2.471 -4.436,-2.494 z m -66.986,9.119 13.73,8.074 c 7.551,4.44 16.91,8.024 20.797,8.024 3.888,-0.03 14.34,5.884 23.229,13.138 10.566,8.625 21.247,14.175 30.853,16.028 14.529,2.802 23.098,10.978 20.828,19.869 -1.558,6.101 -8.34,5.41 -47.021,-4.803 -42.311,-11.168 -85.916,-27.759 -86.371,-32.861 -0.179,-2.013 5.136,-9.015 11.814,-15.563 z m -34.553,48.895 c 4.927,0.38 13.803,3.739 32.44,11.482 19.071,7.924 46.495,16.357 62.164,19.117 17.748,3.125 28.164,6.488 28.388,9.166 0.192,2.326 -1.429,4.172 -3.603,4.172 -36.237,-0.534 -73.482,-3.417 -79.906,-6.189 -25.883,-11.167 -45.282,-21.8 -47.258,-25.903 -1.242,-2.579 -0.38,-6.905 1.916,-9.613 1.367,-1.615 2.903,-2.46 5.859,-2.232 z m 158.19,20.966 c 1.353,-0.07 2.941,0.224 4.66,0.969 3.54,1.534 5.717,4.198 4.847,5.92 -2.096,4.117 -9.675,4.646 -12.461,0.875 -3.042,-4.122 -1.105,-7.56 2.954,-7.764 z m -180.647,3.252 13.803,11.243 c 7.591,6.186 17.159,12.626 21.262,14.318 l 7.457,3.074 -5.606,9.426 c -3.082,5.186 -11.04,23.533 -17.685,40.771 -6.644,17.238 -12.958,31.307 -14.03,31.217 -9.404,-0.597 -26.592,-5.836 -41.195,-12.558 l -17.596,-8.1 4.276,-10.346 c 8.632,-20.894 23.197,-46.053 36.088,-62.338 z m 218.91,6.123 c 4.21,0.121 8.948,0.957 10.955,2.418 0.771,0.56 -3.068,1.386 -8.531,1.84 -5.462,0.452 -10.053,-0.618 -10.195,-2.375 -0.116,-1.407 3.562,-2.003 7.771,-1.883 z m -159.416,24.944 c 1.522,-0.05 3.277,0.778 5.672,1.785 4.277,1.799 8.173,3.535 8.656,3.865 0.483,0.326 -1.006,6.296 -3.31,13.266 -7.826,23.664 3.611,156.427 17.961,208.502 1.63,5.915 0,10.803 -6.217,18.67 -8.111,10.261 -9.368,10.736 -33.824,12.756 -13.97,1.155 -25.484,1.041 -25.584,-0.252 -0.1,-1.296 2.395,-7.493 5.547,-13.774 19.342,-38.551 24.564,-84.325 11.92,-104.506 -14.036,-22.405 -39.466,-32.71 -59.623,-24.16 -13.323,5.65 -12.333,14.663 1.632,14.867 45.854,0.658 52.569,37.741 19.606,108.26 -12.653,27.067 -12.804,27.142 -46.61,23.545 -19.66,-2.092 -25.603,-6.471 -31.935,-23.531 -7.844,-21.132 -3.671,-79.996 9.748,-137.496 3.409,-14.61 7.189,-26.646 8.402,-26.746 1.212,-0.1 10.782,4.066 21.266,9.254 10.484,5.189 24.181,9.818 30.441,10.281 6.26,0.467 20.423,4.405 31.477,8.752 19.272,7.581 33.367,8.247 33.234,1.57 -0.03,-1.734 -6.399,-4.988 -14.14,-7.23 -17.883,-5.177 -18.054,-8.649 -2.696,-55.188 11.349,-34.39 13.813,-42.355 18.377,-42.49 z m 29.448,7.617 23.171,0.777 c 19.744,0.664 22.915,1.569 21.436,6.123 -12.804,39.439 -23.452,109.776 -21.432,141.582 0.258,4.099 -0.982,11.835 -2.761,17.192 l -3.237,9.74 -2.963,-10.305 c -4.891,-17.011 -17.834,-141.855 -15.957,-153.914 z" transform="translate(-157.25939,-41.409159) matrix(0.26458333,0,0,0.26458333,-7376.3815,-4464.3947) translate(-3722.7059,-2451.4833)"/>
</svg>
